<mxfile host="65bd71144e">
    <diagram id="T4fOojkoRZRFXc-FZSiv" name="Page-1">
        <mxGraphModel dx="1841" dy="961" grid="1" gridSize="10" guides="1" tooltips="1" connect="1" arrows="1" fold="1" page="1" pageScale="1" pageWidth="827" pageHeight="1169" math="0" shadow="0">
            <root>
                <mxCell id="0"/>
                <mxCell id="1" parent="0"/>
                <mxCell id="2" value="Menaces" style="ellipse;whiteSpace=wrap;html=1;" vertex="1" parent="1">
                    <mxGeometry x="443" y="540" width="80" height="50" as="geometry"/>
                </mxCell>
                <mxCell id="3" value="Vulnerabilités" style="ellipse;whiteSpace=wrap;html=1;" vertex="1" parent="1">
                    <mxGeometry x="203" y="184" width="80" height="50" as="geometry"/>
                </mxCell>
                <mxCell id="4" value="Contre-Mesures" style="ellipse;whiteSpace=wrap;html=1;" vertex="1" parent="1">
                    <mxGeometry x="587" y="194" width="80" height="50" as="geometry"/>
                </mxCell>
                <mxCell id="5" value="Sécurité" style="ellipse;whiteSpace=wrap;html=1;aspect=fixed;" vertex="1" parent="1">
                    <mxGeometry x="463" y="364" width="60" height="60" as="geometry"/>
                </mxCell>
                <mxCell id="6" value="" style="endArrow=none;html=1;noEdgeStyle=1;" edge="1" parent="1" source="5" target="4">
                    <mxGeometry width="50" height="50" relative="1" as="geometry">
                        <mxPoint x="828" y="384" as="sourcePoint"/>
                        <mxPoint x="878" y="334" as="targetPoint"/>
                    </mxGeometry>
                </mxCell>
                <mxCell id="7" value="" style="endArrow=none;html=1;noEdgeStyle=1;" edge="1" parent="1" source="3" target="5">
                    <mxGeometry width="50" height="50" relative="1" as="geometry">
                        <mxPoint x="757.2856118055186" y="307.4920862654403" as="sourcePoint"/>
                        <mxPoint x="800.4082630604637" y="297.5435765771674" as="targetPoint"/>
                    </mxGeometry>
                </mxCell>
                <mxCell id="8" value="" style="endArrow=none;html=1;noEdgeStyle=1;" edge="1" parent="1" source="2" target="5">
                    <mxGeometry width="50" height="50" relative="1" as="geometry">
                        <mxPoint x="767.2856118055186" y="317.4920862654403" as="sourcePoint"/>
                        <mxPoint x="810.4082630604637" y="307.5435765771674" as="targetPoint"/>
                    </mxGeometry>
                </mxCell>
                <mxCell id="9" value="DoS" style="rounded=1;whiteSpace=wrap;html=1;" vertex="1" parent="1">
                    <mxGeometry x="53" y="640" width="60" height="30" as="geometry"/>
                </mxCell>
                <mxCell id="10" value="XSS" style="rounded=1;whiteSpace=wrap;html=1;" vertex="1" parent="1">
                    <mxGeometry x="263" y="500" width="60" height="30" as="geometry"/>
                </mxCell>
                <mxCell id="12" value="Keylogger" style="rounded=1;whiteSpace=wrap;html=1;" vertex="1" parent="1">
                    <mxGeometry x="670" y="455" width="60" height="30" as="geometry"/>
                </mxCell>
                <mxCell id="13" value="Virus" style="rounded=1;whiteSpace=wrap;html=1;" vertex="1" parent="1">
                    <mxGeometry x="760" y="515" width="60" height="30" as="geometry"/>
                </mxCell>
                <mxCell id="14" value="Malware" style="rounded=1;whiteSpace=wrap;html=1;" vertex="1" parent="1">
                    <mxGeometry x="600" y="555" width="60" height="30" as="geometry"/>
                </mxCell>
                <mxCell id="15" value="USB Killer" style="rounded=1;whiteSpace=wrap;html=1;" vertex="1" parent="1">
                    <mxGeometry x="553" y="805" width="60" height="30" as="geometry"/>
                </mxCell>
                <mxCell id="16" value="Hacker" style="rounded=1;whiteSpace=wrap;html=1;" vertex="1" parent="1">
                    <mxGeometry x="203" y="590" width="60" height="30" as="geometry"/>
                </mxCell>
                <mxCell id="17" value="Feu" style="rounded=1;whiteSpace=wrap;html=1;" vertex="1" parent="1">
                    <mxGeometry x="453" y="805" width="60" height="30" as="geometry"/>
                </mxCell>
                <mxCell id="18" value="Panne de courrant" style="rounded=1;whiteSpace=wrap;html=1;" vertex="1" parent="1">
                    <mxGeometry x="283" y="765" width="60" height="30" as="geometry"/>
                </mxCell>
                <mxCell id="19" value="Data mining" style="rounded=1;whiteSpace=wrap;html=1;" vertex="1" parent="1">
                    <mxGeometry x="133" y="490" width="70" height="30" as="geometry"/>
                </mxCell>
                <mxCell id="20" value="Catastrophe naturelle" style="rounded=1;whiteSpace=wrap;html=1;" vertex="1" parent="1">
                    <mxGeometry x="383" y="685" width="70" height="30" as="geometry"/>
                </mxCell>
                <mxCell id="21" value="Injection SQL" style="rounded=1;whiteSpace=wrap;html=1;" vertex="1" parent="1">
                    <mxGeometry x="223" y="700" width="60" height="30" as="geometry"/>
                </mxCell>
                <mxCell id="22" value="Ransomware" style="rounded=1;whiteSpace=wrap;html=1;" vertex="1" parent="1">
                    <mxGeometry x="540" y="465" width="79" height="30" as="geometry"/>
                </mxCell>
                <mxCell id="23" value="Spyware" style="rounded=1;whiteSpace=wrap;html=1;" vertex="1" parent="1">
                    <mxGeometry x="710" y="605" width="60" height="30" as="geometry"/>
                </mxCell>
                <mxCell id="24" value="Covid" style="rounded=1;whiteSpace=wrap;html=1;" vertex="1" parent="1">
                    <mxGeometry x="353" y="835" width="60" height="30" as="geometry"/>
                </mxCell>
                <mxCell id="25" value="Worm" style="rounded=1;whiteSpace=wrap;html=1;" vertex="1" parent="1">
                    <mxGeometry x="680" y="685" width="60" height="30" as="geometry"/>
                </mxCell>
                <mxCell id="26" value="Vol" style="rounded=1;whiteSpace=wrap;html=1;" vertex="1" parent="1">
                    <mxGeometry x="643" y="745" width="60" height="30" as="geometry"/>
                </mxCell>
                <mxCell id="27" value="Backdoor" style="rounded=1;whiteSpace=wrap;html=1;" vertex="1" parent="1">
                    <mxGeometry x="123" y="720" width="60" height="30" as="geometry"/>
                </mxCell>
                <mxCell id="28" value="Ports" style="rounded=1;whiteSpace=wrap;html=1;" vertex="1" parent="1">
                    <mxGeometry x="63" y="550" width="60" height="30" as="geometry"/>
                </mxCell>
                <mxCell id="30" value="" style="endArrow=none;html=1;noEdgeStyle=1;" edge="1" parent="1" source="14" target="23">
                    <mxGeometry width="50" height="50" relative="1" as="geometry">
                        <mxPoint x="448.4121909888713" y="261.57974868717656" as="sourcePoint"/>
                        <mxPoint x="357.8778495427838" y="270.29553948104103" as="targetPoint"/>
                    </mxGeometry>
                </mxCell>
                <mxCell id="31" value="" style="endArrow=none;html=1;noEdgeStyle=1;" edge="1" parent="1" source="14" target="22">
                    <mxGeometry width="50" height="50" relative="1" as="geometry">
                        <mxPoint x="479.3966573856778" y="282.41489120280596" as="sourcePoint"/>
                        <mxPoint x="462.2840909090909" y="331" as="targetPoint"/>
                    </mxGeometry>
                </mxCell>
                <mxCell id="32" value="" style="endArrow=none;html=1;noEdgeStyle=1;" edge="1" parent="1" source="14" target="2">
                    <mxGeometry width="50" height="50" relative="1" as="geometry">
                        <mxPoint x="590" y="341" as="sourcePoint"/>
                        <mxPoint x="560.0000000000001" y="341" as="targetPoint"/>
                    </mxGeometry>
                </mxCell>
                <mxCell id="33" value="" style="endArrow=none;html=1;noEdgeStyle=1;" edge="1" parent="1" source="25" target="14">
                    <mxGeometry width="50" height="50" relative="1" as="geometry">
                        <mxPoint x="536.9369847860139" y="331" as="sourcePoint"/>
                        <mxPoint x="503.43617967212765" y="281.0634684512968" as="targetPoint"/>
                    </mxGeometry>
                </mxCell>
                <mxCell id="34" value="" style="endArrow=none;html=1;noEdgeStyle=1;" edge="1" parent="1" source="12" target="14">
                    <mxGeometry width="50" height="50" relative="1" as="geometry">
                        <mxPoint x="582" y="329.8461538461538" as="sourcePoint"/>
                        <mxPoint x="577" y="332.1538461538462" as="targetPoint"/>
                    </mxGeometry>
                </mxCell>
                <mxCell id="35" value="" style="endArrow=none;html=1;noEdgeStyle=1;" edge="1" parent="1" source="13" target="14">
                    <mxGeometry width="50" height="50" relative="1" as="geometry">
                        <mxPoint x="536.9369847860139" y="331" as="sourcePoint"/>
                        <mxPoint x="503.43617967212765" y="281.0634684512968" as="targetPoint"/>
                    </mxGeometry>
                </mxCell>
                <mxCell id="36" value="" style="endArrow=none;html=1;noEdgeStyle=1;" edge="1" parent="1" source="20" target="2">
                    <mxGeometry width="50" height="50" relative="1" as="geometry">
                        <mxPoint x="619.9369847860139" y="336" as="sourcePoint"/>
                        <mxPoint x="586.4361796721277" y="286.0634684512968" as="targetPoint"/>
                    </mxGeometry>
                </mxCell>
                <mxCell id="37" value="" style="endArrow=none;html=1;noEdgeStyle=1;" edge="1" parent="1" source="20" target="24">
                    <mxGeometry width="50" height="50" relative="1" as="geometry">
                        <mxPoint x="654.9369847860139" y="256" as="sourcePoint"/>
                        <mxPoint x="621.4361796721277" y="206.06346845129679" as="targetPoint"/>
                    </mxGeometry>
                </mxCell>
                <mxCell id="38" value="" style="endArrow=none;html=1;noEdgeStyle=1;" edge="1" parent="1" source="20" target="17">
                    <mxGeometry width="50" height="50" relative="1" as="geometry">
                        <mxPoint x="664.9369847860139" y="266" as="sourcePoint"/>
                        <mxPoint x="631.4361796721277" y="216.06346845129679" as="targetPoint"/>
                    </mxGeometry>
                </mxCell>
                <mxCell id="39" value="" style="endArrow=none;html=1;noEdgeStyle=1;" edge="1" parent="1" source="18" target="20">
                    <mxGeometry width="50" height="50" relative="1" as="geometry">
                        <mxPoint x="674.9369847860139" y="276" as="sourcePoint"/>
                        <mxPoint x="641.4361796721277" y="226.06346845129679" as="targetPoint"/>
                    </mxGeometry>
                </mxCell>
                <mxCell id="40" value="" style="endArrow=none;html=1;noEdgeStyle=1;" edge="1" parent="1" source="2" target="16">
                    <mxGeometry width="50" height="50" relative="1" as="geometry">
                        <mxPoint x="659.9369847860139" y="376" as="sourcePoint"/>
                        <mxPoint x="626.4361796721277" y="326.0634684512968" as="targetPoint"/>
                    </mxGeometry>
                </mxCell>
                <mxCell id="41" value="" style="endArrow=none;html=1;noEdgeStyle=1;" edge="1" parent="1" source="27" target="16">
                    <mxGeometry width="50" height="50" relative="1" as="geometry">
                        <mxPoint x="569.8566116771894" y="228.62050979182277" as="sourcePoint"/>
                        <mxPoint x="625.53125" y="76" as="targetPoint"/>
                    </mxGeometry>
                </mxCell>
                <mxCell id="42" value="" style="endArrow=none;html=1;noEdgeStyle=1;" edge="1" parent="1" source="16" target="9">
                    <mxGeometry width="50" height="50" relative="1" as="geometry">
                        <mxPoint x="579.8566116771894" y="238.62050979182277" as="sourcePoint"/>
                        <mxPoint x="635.53125" y="86" as="targetPoint"/>
                    </mxGeometry>
                </mxCell>
                <mxCell id="43" value="" style="endArrow=none;html=1;noEdgeStyle=1;" edge="1" parent="1" source="16" target="21">
                    <mxGeometry width="50" height="50" relative="1" as="geometry">
                        <mxPoint x="589.8566116771894" y="248.62050979182277" as="sourcePoint"/>
                        <mxPoint x="645.53125" y="96" as="targetPoint"/>
                    </mxGeometry>
                </mxCell>
                <mxCell id="44" value="" style="endArrow=none;html=1;noEdgeStyle=1;" edge="1" parent="1" source="19" target="16">
                    <mxGeometry width="50" height="50" relative="1" as="geometry">
                        <mxPoint x="601" y="69.64864864864876" as="sourcePoint"/>
                        <mxPoint x="550.0000000000001" y="84.35135135135135" as="targetPoint"/>
                    </mxGeometry>
                </mxCell>
                <mxCell id="45" value="" style="endArrow=none;html=1;noEdgeStyle=1;" edge="1" parent="1" source="10" target="16">
                    <mxGeometry width="50" height="50" relative="1" as="geometry">
                        <mxPoint x="611" y="79.64864864864876" as="sourcePoint"/>
                        <mxPoint x="560.0000000000001" y="94.35135135135135" as="targetPoint"/>
                    </mxGeometry>
                </mxCell>
                <mxCell id="46" value="" style="endArrow=none;html=1;noEdgeStyle=1;" edge="1" parent="1" source="28" target="16">
                    <mxGeometry width="50" height="50" relative="1" as="geometry">
                        <mxPoint x="621" y="89.64864864864876" as="sourcePoint"/>
                        <mxPoint x="570.0000000000001" y="104.35135135135135" as="targetPoint"/>
                    </mxGeometry>
                </mxCell>
                <mxCell id="47" value="Intrusion" style="rounded=1;whiteSpace=wrap;html=1;" vertex="1" parent="1">
                    <mxGeometry x="523" y="665" width="60" height="30" as="geometry"/>
                </mxCell>
                <mxCell id="48" value="" style="endArrow=none;html=1;noEdgeStyle=1;" edge="1" parent="1" source="2" target="47">
                    <mxGeometry width="50" height="50" relative="1" as="geometry">
                        <mxPoint x="569.8566116771894" y="228.62050979182277" as="sourcePoint"/>
                        <mxPoint x="625.53125" y="76" as="targetPoint"/>
                    </mxGeometry>
                </mxCell>
                <mxCell id="49" value="" style="endArrow=none;html=1;noEdgeStyle=1;" edge="1" parent="1" source="47" target="15">
                    <mxGeometry width="50" height="50" relative="1" as="geometry">
                        <mxPoint x="541.2324287252034" y="171.63024590976784" as="sourcePoint"/>
                        <mxPoint x="652.445652173913" y="111" as="targetPoint"/>
                    </mxGeometry>
                </mxCell>
                <mxCell id="50" value="" style="endArrow=none;html=1;noEdgeStyle=1;" edge="1" parent="1" source="47" target="26">
                    <mxGeometry width="50" height="50" relative="1" as="geometry">
                        <mxPoint x="684.6875" y="81" as="sourcePoint"/>
                        <mxPoint x="690.3125" y="62.999999999999886" as="targetPoint"/>
                    </mxGeometry>
                </mxCell>
                <mxCell id="52" value="Firewall" style="rounded=1;whiteSpace=wrap;html=1;" vertex="1" parent="1">
                    <mxGeometry x="767" y="164" width="60" height="30" as="geometry"/>
                </mxCell>
                <mxCell id="53" value="Anti-Malware" style="rounded=1;whiteSpace=wrap;html=1;" vertex="1" parent="1">
                    <mxGeometry x="667" y="324" width="60" height="30" as="geometry"/>
                </mxCell>
                <mxCell id="54" value="VPN" style="rounded=1;whiteSpace=wrap;html=1;" vertex="1" parent="1">
                    <mxGeometry x="577" y="44" width="60" height="30" as="geometry"/>
                </mxCell>
                <mxCell id="55" value="Proxy" style="rounded=1;whiteSpace=wrap;html=1;" vertex="1" parent="1">
                    <mxGeometry x="747" y="254" width="60" height="30" as="geometry"/>
                </mxCell>
                <mxCell id="56" value="Encryption" style="rounded=1;whiteSpace=wrap;html=1;" vertex="1" parent="1">
                    <mxGeometry x="677" y="34" width="60" height="30" as="geometry"/>
                </mxCell>
                <mxCell id="57" value="Mises à jour" style="rounded=1;whiteSpace=wrap;html=1;" vertex="1" parent="1">
                    <mxGeometry x="507" y="114" width="60" height="30" as="geometry"/>
                </mxCell>
                <mxCell id="58" value="Extincteur" style="rounded=1;whiteSpace=wrap;html=1;" vertex="1" parent="1">
                    <mxGeometry x="697" y="124" width="60" height="30" as="geometry"/>
                </mxCell>
                <mxCell id="59" value="Locaux adaptés" style="rounded=1;whiteSpace=wrap;html=1;" vertex="1" parent="1">
                    <mxGeometry x="547" y="314" width="60" height="30" as="geometry"/>
                </mxCell>
                <mxCell id="60" value="" style="endArrow=none;html=1;noEdgeStyle=1;" edge="1" parent="1" source="4" target="52">
                    <mxGeometry width="50" height="50" relative="1" as="geometry">
                        <mxPoint x="470.79716486848474" y="244.9031819592176" as="sourcePoint"/>
                        <mxPoint x="502.54654412007994" y="189.54354778985999" as="targetPoint"/>
                    </mxGeometry>
                </mxCell>
                <mxCell id="61" value="" style="endArrow=none;html=1;noEdgeStyle=1;" edge="1" parent="1" source="4" target="53">
                    <mxGeometry width="50" height="50" relative="1" as="geometry">
                        <mxPoint x="517.9661245181328" y="141.03021861971263" as="sourcePoint"/>
                        <mxPoint x="524.7603305785124" y="60" as="targetPoint"/>
                    </mxGeometry>
                </mxCell>
                <mxCell id="62" value="" style="endArrow=none;html=1;noEdgeStyle=1;" edge="1" parent="1" source="4" target="54">
                    <mxGeometry width="50" height="50" relative="1" as="geometry">
                        <mxPoint x="531.2812163888714" y="142.8962561739687" as="sourcePoint"/>
                        <mxPoint x="586.0826446280992" y="60" as="targetPoint"/>
                    </mxGeometry>
                </mxCell>
                <mxCell id="63" value="" style="endArrow=none;html=1;noEdgeStyle=1;" edge="1" parent="1" source="4" target="55">
                    <mxGeometry width="50" height="50" relative="1" as="geometry">
                        <mxPoint x="541.2812163888714" y="152.8962561739687" as="sourcePoint"/>
                        <mxPoint x="596.0826446280992" y="70" as="targetPoint"/>
                    </mxGeometry>
                </mxCell>
                <mxCell id="64" value="" style="endArrow=none;html=1;noEdgeStyle=1;" edge="1" parent="1" source="4" target="56">
                    <mxGeometry width="50" height="50" relative="1" as="geometry">
                        <mxPoint x="551.2812163888714" y="162.8962561739687" as="sourcePoint"/>
                        <mxPoint x="606.0826446280992" y="80" as="targetPoint"/>
                    </mxGeometry>
                </mxCell>
                <mxCell id="65" value="" style="endArrow=none;html=1;noEdgeStyle=1;" edge="1" parent="1" source="4" target="57">
                    <mxGeometry width="50" height="50" relative="1" as="geometry">
                        <mxPoint x="561.2812163888714" y="172.8962561739687" as="sourcePoint"/>
                        <mxPoint x="616.0826446280992" y="90" as="targetPoint"/>
                    </mxGeometry>
                </mxCell>
                <mxCell id="66" value="" style="endArrow=none;html=1;noEdgeStyle=1;" edge="1" parent="1" source="4" target="58">
                    <mxGeometry width="50" height="50" relative="1" as="geometry">
                        <mxPoint x="571.2812163888714" y="182.8962561739687" as="sourcePoint"/>
                        <mxPoint x="626.0826446280992" y="100" as="targetPoint"/>
                    </mxGeometry>
                </mxCell>
                <mxCell id="67" value="" style="endArrow=none;html=1;noEdgeStyle=1;" edge="1" parent="1" source="4" target="59">
                    <mxGeometry width="50" height="50" relative="1" as="geometry">
                        <mxPoint x="581.2812163888714" y="192.8962561739687" as="sourcePoint"/>
                        <mxPoint x="636.0826446280992" y="110" as="targetPoint"/>
                    </mxGeometry>
                </mxCell>
                <mxCell id="68" value="OS" style="rounded=1;whiteSpace=wrap;html=1;" vertex="1" parent="1">
                    <mxGeometry x="133" y="104" width="60" height="30" as="geometry"/>
                </mxCell>
                <mxCell id="69" value="Utilisateurs&lt;span style=&quot;color: rgba(0 , 0 , 0 , 0) ; font-family: monospace ; font-size: 0px&quot;&gt;%3CmxGraphModel%3E%3Croot%3E%3CmxCell%20id%3D%220%22%2F%3E%3CmxCell%20id%3D%221%22%20parent%3D%220%22%2F%3E%3CmxCell%20id%3D%222%22%20value%3D%22OS%22%20style%3D%22rounded%3D1%3BwhiteSpace%3Dwrap%3Bhtml%3D1%3B%22%20vertex%3D%221%22%20parent%3D%221%22%3E%3CmxGeometry%20x%3D%22203%22%20y%3D%22271%22%20width%3D%2260%22%20height%3D%2230%22%20as%3D%22geometry%22%2F%3E%3C%2FmxCell%3E%3C%2Froot%3E%3C%2FmxGraphModel%3E&lt;/span&gt;" style="rounded=1;whiteSpace=wrap;html=1;" vertex="1" parent="1">
                    <mxGeometry x="223" y="4" width="60" height="30" as="geometry"/>
                </mxCell>
                <mxCell id="70" value="Logiciels" style="rounded=1;whiteSpace=wrap;html=1;" vertex="1" parent="1">
                    <mxGeometry x="43" y="114" width="60" height="30" as="geometry"/>
                </mxCell>
                <mxCell id="71" value="Accès admin" style="rounded=1;whiteSpace=wrap;html=1;" vertex="1" parent="1">
                    <mxGeometry x="343" y="164" width="60" height="30" as="geometry"/>
                </mxCell>
                <mxCell id="72" value="Mots de passes faibles" style="rounded=1;whiteSpace=wrap;html=1;" vertex="1" parent="1">
                    <mxGeometry x="233" y="344" width="90" height="30" as="geometry"/>
                </mxCell>
                <mxCell id="73" value="Élevation de privilèges" style="rounded=1;whiteSpace=wrap;html=1;" vertex="1" parent="1">
                    <mxGeometry x="103" y="24" width="80" height="30" as="geometry"/>
                </mxCell>
                <mxCell id="74" value="Ports ouverts" style="rounded=1;whiteSpace=wrap;html=1;" vertex="1" parent="1">
                    <mxGeometry x="163" y="324" width="60" height="30" as="geometry"/>
                </mxCell>
                <mxCell id="75" value="Materiel" style="rounded=1;whiteSpace=wrap;html=1;" vertex="1" parent="1">
                    <mxGeometry x="243" y="84" width="60" height="30" as="geometry"/>
                </mxCell>
                <mxCell id="76" value="Locaux" style="rounded=1;whiteSpace=wrap;html=1;" vertex="1" parent="1">
                    <mxGeometry x="93" y="214" width="60" height="30" as="geometry"/>
                </mxCell>
                <mxCell id="77" value="Mises à jours ignorées" style="rounded=1;whiteSpace=wrap;html=1;" vertex="1" parent="1">
                    <mxGeometry x="303" y="264" width="80" height="30" as="geometry"/>
                </mxCell>
                <mxCell id="78" value="Site mal protégé" style="rounded=1;whiteSpace=wrap;html=1;" vertex="1" parent="1">
                    <mxGeometry x="63" y="314" width="60" height="30" as="geometry"/>
                </mxCell>
                <mxCell id="79" value="Base de donnée" style="rounded=1;whiteSpace=wrap;html=1;" vertex="1" parent="1">
                    <mxGeometry x="3" y="204" width="60" height="30" as="geometry"/>
                </mxCell>
                <mxCell id="80" value="Mauvaise gestion des permissions" style="rounded=1;whiteSpace=wrap;html=1;" vertex="1" parent="1">
                    <mxGeometry x="303" y="54" width="100" height="30" as="geometry"/>
                </mxCell>
                <mxCell id="81" value="" style="endArrow=none;html=1;noEdgeStyle=1;" edge="1" parent="1" source="3" target="69">
                    <mxGeometry width="50" height="50" relative="1" as="geometry">
                        <mxPoint x="505.25457060626354" y="302.01710291376025" as="sourcePoint"/>
                        <mxPoint x="469.6236930068874" y="170.65485730341322" as="targetPoint"/>
                    </mxGeometry>
                </mxCell>
                <mxCell id="82" value="" style="endArrow=none;html=1;noEdgeStyle=1;" edge="1" parent="1" source="3" target="68">
                    <mxGeometry width="50" height="50" relative="1" as="geometry">
                        <mxPoint x="353" y="336" as="sourcePoint"/>
                        <mxPoint x="273" y="336" as="targetPoint"/>
                    </mxGeometry>
                </mxCell>
                <mxCell id="83" value="" style="endArrow=none;html=1;noEdgeStyle=1;" edge="1" parent="1" source="3" target="70">
                    <mxGeometry width="50" height="50" relative="1" as="geometry">
                        <mxPoint x="363" y="346" as="sourcePoint"/>
                        <mxPoint x="283" y="346" as="targetPoint"/>
                    </mxGeometry>
                </mxCell>
                <mxCell id="84" value="" style="endArrow=none;html=1;noEdgeStyle=1;" edge="1" parent="1" source="3" target="72">
                    <mxGeometry width="50" height="50" relative="1" as="geometry">
                        <mxPoint x="373" y="356" as="sourcePoint"/>
                        <mxPoint x="293" y="356" as="targetPoint"/>
                    </mxGeometry>
                </mxCell>
                <mxCell id="85" value="" style="endArrow=none;html=1;noEdgeStyle=1;" edge="1" parent="1" source="3" target="71">
                    <mxGeometry width="50" height="50" relative="1" as="geometry">
                        <mxPoint x="383" y="366" as="sourcePoint"/>
                        <mxPoint x="303" y="366" as="targetPoint"/>
                    </mxGeometry>
                </mxCell>
                <mxCell id="86" value="" style="endArrow=none;html=1;noEdgeStyle=1;" edge="1" parent="1" source="3" target="73">
                    <mxGeometry width="50" height="50" relative="1" as="geometry">
                        <mxPoint x="393" y="376" as="sourcePoint"/>
                        <mxPoint x="313" y="376" as="targetPoint"/>
                    </mxGeometry>
                </mxCell>
                <mxCell id="87" value="" style="endArrow=none;html=1;noEdgeStyle=1;" edge="1" parent="1" source="3" target="77">
                    <mxGeometry width="50" height="50" relative="1" as="geometry">
                        <mxPoint x="403" y="386" as="sourcePoint"/>
                        <mxPoint x="323" y="386" as="targetPoint"/>
                    </mxGeometry>
                </mxCell>
                <mxCell id="88" value="" style="endArrow=none;html=1;noEdgeStyle=1;" edge="1" parent="1" source="3" target="78">
                    <mxGeometry width="50" height="50" relative="1" as="geometry">
                        <mxPoint x="353" y="336" as="sourcePoint"/>
                        <mxPoint x="200" y="336" as="targetPoint"/>
                    </mxGeometry>
                </mxCell>
                <mxCell id="89" value="" style="endArrow=none;html=1;noEdgeStyle=1;" edge="1" parent="1" source="3" target="79">
                    <mxGeometry width="50" height="50" relative="1" as="geometry">
                        <mxPoint x="363" y="346" as="sourcePoint"/>
                        <mxPoint x="210" y="346" as="targetPoint"/>
                    </mxGeometry>
                </mxCell>
                <mxCell id="90" value="" style="endArrow=none;html=1;noEdgeStyle=1;" edge="1" parent="1" source="3" target="74">
                    <mxGeometry width="50" height="50" relative="1" as="geometry">
                        <mxPoint x="373" y="356" as="sourcePoint"/>
                        <mxPoint x="220" y="356" as="targetPoint"/>
                    </mxGeometry>
                </mxCell>
                <mxCell id="91" value="" style="endArrow=none;html=1;noEdgeStyle=1;" edge="1" parent="1" source="3" target="75">
                    <mxGeometry width="50" height="50" relative="1" as="geometry">
                        <mxPoint x="361.68605396852627" y="320.4446956402094" as="sourcePoint"/>
                        <mxPoint x="180" y="229.93827160493822" as="targetPoint"/>
                    </mxGeometry>
                </mxCell>
                <mxCell id="92" value="" style="endArrow=none;html=1;noEdgeStyle=1;" edge="1" parent="1" source="3" target="76">
                    <mxGeometry width="50" height="50" relative="1" as="geometry">
                        <mxPoint x="371.68605396852627" y="330.4446956402094" as="sourcePoint"/>
                        <mxPoint x="190" y="239.93827160493822" as="targetPoint"/>
                    </mxGeometry>
                </mxCell>
                <mxCell id="93" value="" style="endArrow=none;html=1;noEdgeStyle=1;" edge="1" parent="1" source="3" target="80">
                    <mxGeometry width="50" height="50" relative="1" as="geometry">
                        <mxPoint x="354.2846518831693" y="329.7150408901249" as="sourcePoint"/>
                        <mxPoint x="180" y="300.9382716049382" as="targetPoint"/>
                    </mxGeometry>
                </mxCell>
            </root>
        </mxGraphModel>
    </diagram>
</mxfile>